<svg width="20" height="21" viewBox="0 0 20 21" fill="none" xmlns="http://www.w3.org/2000/svg">
<path fill-rule="evenodd" clip-rule="evenodd" d="M10 3.625C7.58375 3.625 5.625 5.58375 5.625 8C5.625 10.4162 7.58375 12.375 10 12.375C12.4162 12.375 14.375 10.4162 14.375 8C14.375 5.58375 12.4162 3.625 10 3.625ZM4.375 8C4.375 4.8934 6.8934 2.375 10 2.375C13.1066 2.375 15.625 4.8934 15.625 8C15.625 11.1066 13.1066 13.625 10 13.625C6.8934 13.625 4.375 11.1066 4.375 8Z" fill="#9CADF2"/>
<path fill-rule="evenodd" clip-rule="evenodd" d="M10.0001 13.6245C8.57374 13.6245 7.17251 14 5.93728 14.7132C4.70205 15.4265 3.67634 16.4523 2.96327 17.6877C2.79071 17.9866 2.40848 18.0891 2.10953 17.9165C1.81058 17.7439 1.70812 17.3617 1.88068 17.0628C2.70345 15.6374 3.88696 14.4537 5.31223 13.6307C6.7375 12.8078 8.3543 12.3745 10.0001 12.3745C11.6459 12.3745 13.2627 12.8078 14.688 13.6307C16.1132 14.4537 17.2968 15.6374 18.1195 17.0628C18.2921 17.3617 18.1896 17.7439 17.8907 17.9165C17.5917 18.0891 17.2095 17.9866 17.0369 17.6877C16.3239 16.4523 15.2982 15.4265 14.0629 14.7132C12.8277 14 11.4265 13.6245 10.0001 13.6245Z" fill="#9CADF2"/>
</svg>
